<svg width="197" height="211" viewBox="0 0 197 211" fill="none" xmlns="http://www.w3.org/2000/svg">
<path d="M81 211H77C76.2044 211 75.4413 210.684 74.8787 210.121C74.3161 209.559 74 208.796 74 208V190C74 189.204 74.3161 188.441 74.8787 187.879C75.4413 187.316 76.2044 187 77 187H81C81.7956 187 82.5587 187.316 83.1213 187.879C83.6839 188.441 84 189.204 84 190V208C84 208.796 83.6839 209.559 83.1213 210.121C82.5587 210.684 81.7956 211 81 211ZM77 189C76.7348 189 76.4804 189.105 76.2929 189.293C76.1054 189.48 76 189.735 76 190V208C76 208.265 76.1054 208.52 76.2929 208.707C76.4804 208.895 76.7348 209 77 209H81C81.2652 209 81.5196 208.895 81.7071 208.707C81.8946 208.52 82 208.265 82 208V190C82 189.735 81.8946 189.48 81.7071 189.293C81.5196 189.105 81.2652 189 81 189H77Z" fill="black"/>
<path d="M129 211H125C124.204 211 123.441 210.684 122.879 210.121C122.316 209.559 122 208.796 122 208V190C122 189.204 122.316 188.441 122.879 187.879C123.441 187.316 124.204 187 125 187H129C129.796 187 130.559 187.316 131.121 187.879C131.684 188.441 132 189.204 132 190V208C132 208.796 131.684 209.559 131.121 210.121C130.559 210.684 129.796 211 129 211ZM125 189C124.735 189 124.48 189.105 124.293 189.293C124.105 189.48 124 189.735 124 190V208C124 208.265 124.105 208.52 124.293 208.707C124.48 208.895 124.735 209 125 209H129C129.265 209 129.52 208.895 129.707 208.707C129.895 208.52 130 208.265 130 208V190C130 189.735 129.895 189.48 129.707 189.293C129.52 189.105 129.265 189 129 189H125Z" fill="black"/>
<path d="M121 211H85C84.2044 211 83.4413 210.684 82.8787 210.121C82.3161 209.559 82 208.796 82 208V204C82 203.204 82.3161 202.441 82.8787 201.879C83.4413 201.316 84.2044 201 85 201H121C121.796 201 122.559 201.316 123.121 201.879C123.684 202.441 124 203.204 124 204V208C124 208.796 123.684 209.559 123.121 210.121C122.559 210.684 121.796 211 121 211V211ZM85 203C84.7348 203 84.4804 203.105 84.2929 203.293C84.1054 203.48 84 203.735 84 204V208C84 208.265 84.1054 208.52 84.2929 208.707C84.4804 208.895 84.7348 209 85 209H121C121.265 209 121.52 208.895 121.707 208.707C121.895 208.52 122 208.265 122 208V204C122 203.735 121.895 203.48 121.707 203.293C121.52 203.105 121.265 203 121 203H85Z" fill="black"/>
<path d="M104 203H82V199C82 197.674 82.5268 196.402 83.4645 195.464C84.4021 194.527 85.6739 194 87 194H99C100.326 194 101.598 194.527 102.536 195.464C103.473 196.402 104 197.674 104 199V203ZM84 201H102V199C102 198.204 101.684 197.441 101.121 196.879C100.559 196.316 99.7956 196 99 196H87C86.2044 196 85.4413 196.316 84.8787 196.879C84.3161 197.441 84 198.204 84 199V201Z" fill="black"/>
<path d="M124 203H102V199C102 197.674 102.527 196.402 103.464 195.464C104.402 194.527 105.674 194 107 194H119C120.326 194 121.598 194.527 122.536 195.464C123.473 196.402 124 197.674 124 199V203ZM104 201H122V199C122 198.204 121.684 197.441 121.121 196.879C120.559 196.316 119.796 196 119 196H107C106.204 196 105.441 196.316 104.879 196.879C104.316 197.441 104 198.204 104 199V201Z" fill="black"/>
<path d="M104 199H102C102 198.204 101.684 197.441 101.121 196.879C100.559 196.316 99.7956 196 99 196H87C86.2044 196 85.4413 196.316 84.8787 196.879C84.3161 197.441 84 198.204 84 199H82V190C82 189.735 81.8946 189.48 81.7071 189.293C81.5196 189.105 81.2652 189 81 189H80V184C80 182.674 80.5268 181.402 81.4645 180.464C82.4021 179.527 83.6739 179 85 179H99C100.326 179 101.598 179.527 102.536 180.464C103.473 181.402 104 182.674 104 184V199ZM87 194H99C100.082 194 101.135 194.351 102 195V184C102 183.204 101.684 182.441 101.121 181.879C100.559 181.316 99.7956 181 99 181H85C84.2044 181 83.4413 181.316 82.8787 181.879C82.3161 182.441 82 183.204 82 184V187.17C82.5852 187.377 83.0917 187.76 83.4499 188.267C83.8081 188.774 84.0003 189.379 84 190V195C84.8655 194.351 85.9181 194 87 194V194Z" fill="black"/>
<path d="M124 199H122C122 198.204 121.684 197.441 121.121 196.879C120.559 196.316 119.796 196 119 196H107C106.204 196 105.441 196.316 104.879 196.879C104.316 197.441 104 198.204 104 199H102V184C102 182.674 102.527 181.402 103.464 180.464C104.402 179.527 105.674 179 107 179H121C122.326 179 123.598 179.527 124.536 180.464C125.473 181.402 126 182.674 126 184V189H125C124.735 189 124.48 189.105 124.293 189.293C124.105 189.48 124 189.735 124 190V199ZM107 194H119C120.082 194 121.135 194.351 122 195V190C122 189.379 122.192 188.774 122.55 188.267C122.908 187.76 123.415 187.377 124 187.17V184C124 183.204 123.684 182.441 123.121 181.879C122.559 181.316 121.796 181 121 181H107C106.204 181 105.441 181.316 104.879 181.879C104.316 182.441 104 183.204 104 184V195C104.865 194.351 105.918 194 107 194V194Z" fill="black"/>
<path d="M104 198H102V203H104V198Z" fill="black"/>
<path d="M87.5 189C88.3284 189 89 188.328 89 187.5C89 186.672 88.3284 186 87.5 186C86.6716 186 86 186.672 86 187.5C86 188.328 86.6716 189 87.5 189Z" fill="black"/>
<path d="M96.5 189C97.3284 189 98 188.328 98 187.5C98 186.672 97.3284 186 96.5 186C95.6716 186 95 186.672 95 187.5C95 188.328 95.6716 189 96.5 189Z" fill="black"/>
<path d="M109.5 189C110.328 189 111 188.328 111 187.5C111 186.672 110.328 186 109.5 186C108.672 186 108 186.672 108 187.5C108 188.328 108.672 189 109.5 189Z" fill="black"/>
<path d="M118.5 189C119.328 189 120 188.328 120 187.5C120 186.672 119.328 186 118.5 186C117.672 186 117 186.672 117 187.5C117 188.328 117.672 189 118.5 189Z" fill="black"/>
<path d="M7.88462 210H6L6.02827 207.889L8.07308 198.692H22.0192V210H20.1346V200.577H9.58077L7.88462 208.2V210Z" fill="black"/>
<path d="M22.9615 200.577H7.88462V195.931L6.10365 184.087C6.03628 183.841 6.00143 183.587 6 183.333V181.731C6.00049 181.172 6.16655 180.626 6.47721 180.161C6.78787 179.697 7.2292 179.335 7.74544 179.121C8.26169 178.908 8.8297 178.852 9.37774 178.96C9.92579 179.069 10.4293 179.338 10.8246 179.733C11.3549 180.263 11.6532 180.981 11.6538 181.731V183.267C11.6396 183.357 11.6396 183.449 11.6538 183.54V183.681L13.35 194.857L20.1346 194.923C20.8844 194.923 21.6034 195.221 22.1336 195.751C22.6637 196.281 22.9615 197 22.9615 197.75V200.577ZM9.76923 198.692H21.0769V197.75C21.0769 197.5 20.9776 197.26 20.8009 197.084C20.6242 196.907 20.3845 196.808 20.1346 196.808L11.7858 196.751L9.85404 184.039C9.78721 183.787 9.75238 183.528 9.75038 183.267V181.731C9.75038 181.481 9.65111 181.241 9.47439 181.064C9.29767 180.888 9.05799 180.788 8.80808 180.788C8.55816 180.788 8.31848 180.888 8.14176 181.064C7.96505 181.241 7.86577 181.481 7.86577 181.731V183.333C7.85651 183.427 7.86287 183.523 7.88462 183.615V183.757L9.76923 195.865V198.692Z" fill="black"/>
<path d="M53.1153 210V208.2L51.4192 200.577H40.8653V210H38.9807V198.692H52.9269L54.9999 208.097V210H53.1153Z" fill="black"/>
<path d="M53.1155 200.577H38.0386V197.75C38.0386 197 38.3364 196.281 38.8666 195.751C39.3967 195.221 40.1158 194.923 40.8655 194.923L47.603 194.876L49.3274 183.568C49.3575 183.48 49.3734 183.388 49.3745 183.295V181.731C49.3724 181.359 49.4437 180.99 49.5844 180.645C49.7251 180.301 49.9323 179.988 50.1943 179.724C50.5912 179.335 51.0939 179.071 51.6396 178.966C52.1853 178.861 52.7499 178.92 53.2627 179.134C53.7755 179.348 54.2137 179.709 54.5228 180.17C54.8318 180.632 54.9978 181.175 55.0001 181.731V183.333C54.9987 183.587 54.9638 183.841 54.8965 184.087L53.1155 195.931V200.577ZM39.9232 198.692H51.2309V195.724L53.1155 183.615C53.1299 183.525 53.1299 183.433 53.1155 183.342V181.731C53.1155 181.481 53.0162 181.241 52.8395 181.064C52.6628 180.888 52.4231 180.788 52.1732 180.788C51.9233 180.788 51.6836 180.888 51.5069 181.064C51.3302 181.241 51.2309 181.481 51.2309 181.731V183.267C51.2295 183.528 51.1947 183.787 51.1272 184.039L49.2426 196.742L40.8655 196.808C40.6156 196.808 40.3759 196.907 40.1992 197.084C40.0225 197.26 39.9232 197.5 39.9232 197.75V198.692Z" fill="black"/>
<path d="M42.75 193.038H18.25V187.385H42.75V193.038ZM20.1346 191.154H40.8654V189.269H20.1346V191.154Z" fill="black"/>
<path d="M46.5192 187.385H14.4807V189.269H46.5192V187.385Z" fill="black"/>
<path d="M16.3654 210H14.4808V209.058C14.426 206.021 15.0709 203.013 16.3654 200.266C17.7031 197.42 18.3489 194.297 18.25 191.154V190.212H20.1346V191.154C20.2319 194.55 19.5349 197.922 18.0992 201.001C16.9059 203.516 16.3124 206.274 16.3654 209.058V210Z" fill="black"/>
<path d="M46.5192 210H44.6346V209.058C44.6876 206.274 44.0941 203.516 42.9008 201.001C41.4651 197.922 40.7681 194.55 40.8654 191.154V190.212H42.75V191.154C42.6511 194.297 43.2969 197.42 44.6346 200.266C45.9291 203.013 46.574 206.021 46.5192 209.058V210Z" fill="black"/>
<path d="M38.0383 171.365H22.9614V170.423C22.9614 169.174 23.4578 167.975 24.3414 167.092C25.225 166.208 26.4234 165.712 27.673 165.712H33.3268C34.5764 165.712 35.7748 166.208 36.6584 167.092C37.542 167.975 38.0383 169.174 38.0383 170.423V171.365ZM25.0062 169.481H35.9935C35.7986 168.929 35.4374 168.452 34.9598 168.114C34.4822 167.777 33.9117 167.596 33.3268 167.596H27.673C27.3003 167.595 26.9311 167.668 26.5866 167.81C26.2421 167.953 25.9292 168.162 25.6658 168.425C25.3732 168.726 25.1483 169.086 25.0062 169.481V169.481Z" fill="black"/>
<path d="M30.5 174.192C29.7503 174.192 29.0312 173.894 28.5011 173.364C27.9709 172.834 27.6731 172.115 27.6731 171.365C27.6737 170.865 27.8071 170.374 28.0594 169.943L28.3327 169.481H32.6673L32.9406 169.943C33.193 170.374 33.3263 170.865 33.3269 171.365C33.3269 172.115 33.0291 172.834 32.499 173.364C31.9688 173.894 31.2498 174.192 30.5 174.192ZM29.5577 171.365C29.5577 171.615 29.657 171.855 29.8337 172.032C30.0104 172.208 30.2501 172.308 30.5 172.308C30.7499 172.308 30.9896 172.208 31.1663 172.032C31.343 171.855 31.4423 171.615 31.4423 171.365H29.5577Z" fill="black"/>
<path d="M31.4422 161H29.5576V167.596H31.4422V161Z" fill="black"/>
<path d="M157.188 130.406H152.594V90.5938H157.188V130.406ZM154.125 128.875H155.656V92.125H154.125V128.875Z" fill="black"/>
<path d="M192.406 130.406H187.812V90.5938H192.406V130.406ZM189.344 128.875H190.875V92.125H189.344V128.875Z" fill="black"/>
<path d="M189.344 126.578H155.656V119.688H189.344V126.578ZM157.188 125.047H187.812V121.219H157.188V125.047Z" fill="black"/>
<path d="M164.239 121.219H158.558C157.788 121.219 157.05 120.913 156.506 120.369C155.962 119.825 155.656 119.087 155.656 118.317V117.995C155.656 117.226 155.962 116.488 156.506 115.944C157.05 115.399 157.788 115.094 158.558 115.094H164.239C165.008 115.094 165.747 115.399 166.291 115.944C166.835 116.488 167.141 117.226 167.141 117.995V118.317C167.141 119.087 166.835 119.825 166.291 120.369C165.747 120.913 165.008 121.219 164.239 121.219V121.219ZM158.558 116.625C158.378 116.625 158.2 116.66 158.034 116.729C157.867 116.798 157.716 116.899 157.589 117.026C157.462 117.154 157.361 117.305 157.292 117.471C157.223 117.637 157.188 117.815 157.188 117.995V118.317C157.188 118.681 157.332 119.029 157.589 119.286C157.846 119.543 158.194 119.688 158.558 119.688H164.239C164.602 119.688 164.951 119.543 165.208 119.286C165.465 119.029 165.609 118.681 165.609 118.317V117.995C165.609 117.632 165.465 117.283 165.208 117.026C164.951 116.769 164.602 116.625 164.239 116.625H158.558Z" fill="black"/>
<path d="M189.344 121.219H170.203V115.094H183.984C185.406 115.094 186.769 115.658 187.774 116.663C188.779 117.669 189.344 119.032 189.344 120.453V121.219ZM171.734 119.688H187.736C187.559 118.823 187.09 118.046 186.406 117.488C185.722 116.93 184.867 116.625 183.984 116.625H171.734V119.688Z" fill="black"/>
<path d="M171.734 121.219H165.609V114.328H171.734V121.219ZM167.141 119.688H170.203V115.859H167.141V119.688Z" fill="black"/>
<path d="M189.344 107.438H155.656V100.547H189.344V107.438ZM157.188 105.906H187.812V102.078H157.188V105.906Z" fill="black"/>
<path d="M164.239 102.078H158.558C157.788 102.078 157.05 101.772 156.506 101.228C155.962 100.684 155.656 99.946 155.656 99.1764V98.8548C155.656 98.0853 155.962 97.3472 156.506 96.803C157.05 96.2588 157.788 95.9531 158.558 95.9531H164.239C165.008 95.9531 165.747 96.2588 166.291 96.803C166.835 97.3472 167.141 98.0853 167.141 98.8548V99.1764C167.141 99.946 166.835 100.684 166.291 101.228C165.747 101.772 165.008 102.078 164.239 102.078V102.078ZM158.558 97.4844C158.378 97.4844 158.2 97.5198 158.034 97.5887C157.867 97.6576 157.716 97.7585 157.589 97.8858C157.462 98.013 157.361 98.1641 157.292 98.3304C157.223 98.4967 157.188 98.6749 157.188 98.8548V99.1764C157.188 99.5399 157.332 99.8885 157.589 100.145C157.846 100.402 158.194 100.547 158.558 100.547H164.239C164.602 100.547 164.951 100.402 165.208 100.145C165.465 99.8885 165.609 99.5399 165.609 99.1764V98.8548C165.609 98.4914 165.465 98.1428 165.208 97.8858C164.951 97.6288 164.602 97.4844 164.239 97.4844H158.558Z" fill="black"/>
<path d="M189.344 102.078H170.203V95.9531H183.984C185.406 95.9531 186.769 96.5178 187.774 97.5228C188.779 98.5279 189.344 99.8911 189.344 101.312V102.078ZM171.734 100.547H187.736C187.559 99.6822 187.09 98.9051 186.406 98.347C185.722 97.7889 184.867 97.4842 183.984 97.4844H171.734V100.547Z" fill="black"/>
<path d="M171.734 102.078H165.609V95.1875H171.734V102.078ZM167.141 100.547H170.203V96.7188H167.141V100.547Z" fill="black"/>
<path d="M120.703 87.5312H82.4219C82.2188 87.5312 82.0241 87.6119 81.8805 87.7555C81.7369 87.8991 81.6562 88.0938 81.6562 88.2969V90.5938H79.3594C79.1563 90.5938 78.9616 90.6744 78.818 90.818C78.6744 90.9616 78.5938 91.1563 78.5938 91.3594V96.7188H77.0625C76.6564 96.7188 76.2669 96.8801 75.9797 97.1672C75.6926 97.4544 75.5312 97.8439 75.5312 98.25V104.375C75.5312 104.781 75.6926 105.171 75.9797 105.458C76.2669 105.745 76.6564 105.906 77.0625 105.906H78.5938V132.703C78.5938 132.906 78.6744 133.101 78.818 133.245C78.9616 133.388 79.1563 133.469 79.3594 133.469H120.703C120.906 133.469 121.101 133.388 121.245 133.245C121.388 133.101 121.469 132.906 121.469 132.703V88.2969C121.469 88.0938 121.388 87.8991 121.245 87.7555C121.101 87.6119 120.906 87.5312 120.703 87.5312V87.5312ZM78.5938 104.375H77.0625V98.25H78.5938V104.375ZM83.1875 89.0625H119.938V90.5938H83.1875V89.0625ZM116.875 128.875H102.328V92.125H116.875V128.875ZM84.7188 92.125V95.1875H83.1875V92.125H84.7188ZM100.797 92.125V101.312H86.25V99.7812H87.0156C87.2187 99.7812 87.4134 99.7006 87.557 99.557C87.7006 99.4134 87.7812 99.2187 87.7812 99.0156V95.9531C87.7812 95.7501 87.7006 95.5553 87.557 95.4117C87.4134 95.2682 87.2187 95.1875 87.0156 95.1875H86.25V92.125H100.797ZM83.1875 96.7188H86.25V98.25H83.1875V96.7188ZM100.797 104.375H86.25V102.844H100.797V104.375ZM86.25 105.906H100.797V115.094H86.25V105.906ZM86.25 116.625H100.797V118.156H86.25V116.625ZM83.1875 99.7812H84.7188V121.219H83.1875V99.7812ZM83.1875 122.75H86.25V124.281H83.1875V122.75ZM86.25 125.812H87.0156C87.2187 125.812 87.4134 125.732 87.557 125.588C87.7006 125.445 87.7812 125.25 87.7812 125.047V121.984C87.7812 121.781 87.7006 121.587 87.557 121.443C87.4134 121.299 87.2187 121.219 87.0156 121.219H86.25V119.688H100.797V128.875H86.25V125.812ZM80.125 92.125H81.6562V131.938H80.125V92.125ZM83.1875 125.812H84.7188V131.938H83.1875V125.812ZM86.25 130.406H100.797V131.938H86.25V130.406ZM102.328 130.406H116.875V131.938H102.328V130.406ZM119.938 131.938H118.406V92.125H119.938V131.938Z" fill="black"/>
<path d="M105.391 105.906H108.453C108.656 105.906 108.851 105.826 108.995 105.682C109.138 105.538 109.219 105.344 109.219 105.141V97.4844C109.219 97.2813 109.138 97.0866 108.995 96.943C108.851 96.7994 108.656 96.7188 108.453 96.7188H105.391C105.188 96.7188 104.993 96.7994 104.849 96.943C104.706 97.0866 104.625 97.2813 104.625 97.4844V105.141C104.625 105.344 104.706 105.538 104.849 105.682C104.993 105.826 105.188 105.906 105.391 105.906ZM106.156 98.25H107.688V104.375H106.156V98.25Z" fill="black"/>
<path d="M16.0517 124.017H0V86H16.0517V124.017ZM1.68966 122.328H14.3621V87.6897H1.68966V122.328Z" fill="black"/>
<path d="M34.6379 124.017H14.3621V86H34.6379V124.017ZM16.0517 122.328H32.9483V87.6897H16.0517V122.328Z" fill="black"/>
<path d="M31.2587 107.121H17.7415V89.3793H31.2587V107.121ZM19.4311 105.431H29.569V91.069H19.4311V105.431Z" fill="black"/>
<path d="M34.6379 124.017H14.3621V115.569H34.6379V124.017ZM16.0517 122.328H32.9483V117.259H16.0517V122.328Z" fill="black"/>
<path d="M34.6379 117.259H14.3621V108.81H34.6379V117.259ZM16.0517 115.569H32.9483V110.5H16.0517V115.569Z" fill="black"/>
<path d="M49 124.017H32.9482V86H49V124.017ZM34.6379 122.328H47.3103V87.6897H34.6379V122.328Z" fill="black"/>
<path d="M26.1896 112.19H22.8103V113.879H26.1896V112.19Z" fill="black"/>
<path d="M26.1896 118.948H22.8103V120.638H26.1896V118.948Z" fill="black"/>
<path d="M25.59 93.8524L20.9424 98.5001L22.1371 99.6948L26.7848 95.0472L25.59 93.8524Z" fill="black"/>
<path d="M25.5947 98.9176L22.6377 101.875L23.8325 103.069L26.7895 100.112L25.5947 98.9176Z" fill="black"/>
<path d="M12.6723 103.741H10.9827V107.121H12.6723V103.741Z" fill="black"/>
<path d="M38.0173 103.741H36.3276V107.121H38.0173V103.741Z" fill="black"/>
<path d="M194.703 42.1094H182.453V29.0938H194.703V42.1094ZM183.984 40.5781H193.172V30.625H183.984V40.5781Z" fill="black"/>
<path d="M194.703 34.4531H182.453V35.9844H194.703V34.4531Z" fill="black"/>
<path d="M190.109 36.75H187.047V38.2812H190.109V36.75Z" fill="black"/>
<path d="M190.109 31.3906H187.047V32.9219H190.109V31.3906Z" fill="black"/>
<path d="M180.922 42.1094H179.391V36.75H151.828V42.1094H150.297V35.2188H180.922V42.1094Z" fill="black"/>
<path d="M180.922 36.75H150.297V30.625H180.922V36.75ZM151.828 35.2188H179.391V32.1562H151.828V35.2188Z" fill="black"/>
<path d="M180.156 32.1562H151.062V29.3311C151.069 28.0517 151.579 26.8264 152.484 25.9217C153.389 25.017 154.614 24.506 155.894 24.5H175.325C176.605 24.504 177.832 25.0143 178.737 25.9195C179.642 26.8246 180.152 28.0511 180.156 29.3311V32.1562ZM152.594 30.625H178.625V29.3311C178.623 28.4565 178.275 27.6184 177.656 27C177.038 26.3816 176.2 26.0333 175.325 26.0312H155.894C155.141 26.0385 154.415 26.3094 153.842 26.7969C153.457 27.0987 153.145 27.4832 152.929 27.9219C152.713 28.3605 152.598 28.8422 152.594 29.3311V30.625Z" fill="black"/>
<path d="M164.844 26.0312H155.656V22.2031C155.656 21.594 155.898 21.0097 156.329 20.579C156.76 20.1482 157.344 19.9063 157.953 19.9062H162.547C163.156 19.9063 163.74 20.1482 164.171 20.579C164.602 21.0097 164.844 21.594 164.844 22.2031V26.0312ZM157.188 24.5H163.312V22.2031C163.312 22.0001 163.232 21.8053 163.088 21.6617C162.945 21.5182 162.75 21.4375 162.547 21.4375H157.953C157.75 21.4375 157.555 21.5182 157.412 21.6617C157.268 21.8053 157.188 22.0001 157.188 22.2031V24.5Z" fill="black"/>
<path d="M175.562 26.0312H166.375V22.2031C166.375 21.594 166.617 21.0097 167.048 20.579C167.478 20.1482 168.063 19.9063 168.672 19.9062H173.266C173.875 19.9063 174.459 20.1482 174.89 20.579C175.321 21.0097 175.562 21.594 175.562 22.2031V26.0312ZM167.906 24.5H174.031V22.2031C174.031 22.0001 173.951 21.8053 173.807 21.6617C173.663 21.5182 173.469 21.4375 173.266 21.4375H168.672C168.469 21.4375 168.274 21.5182 168.13 21.6617C167.987 21.8053 167.906 22.0001 167.906 22.2031V24.5Z" fill="black"/>
<path d="M178.625 27.7692L177.377 26.7969C176.804 26.3094 176.078 26.0385 175.325 26.0312H155.894C155.141 26.0385 154.415 26.3094 153.842 26.7969L152.594 27.7692V16.0781H178.625V27.7692ZM155.894 24.5H175.325C175.931 24.4992 176.531 24.6135 177.094 24.8369V17.6094H154.125V24.8369C154.688 24.6135 155.288 24.4992 155.894 24.5Z" fill="black"/>
<path d="M154.125 14.5469H152.594V17.6094H154.125V14.5469Z" fill="black"/>
<path d="M178.625 14.5469H177.094V17.6094H178.625V14.5469Z" fill="black"/>
<path d="M188.578 30.625C187.766 30.625 186.987 30.3023 186.413 29.728C185.838 29.1537 185.516 28.3747 185.516 27.5625V26.9806C185.515 26.5783 185.594 26.1799 185.748 25.8082C185.902 25.4364 186.127 25.0985 186.411 24.8139L188.578 22.6548L190.745 24.8139C191.029 25.0985 191.255 25.4364 191.408 25.8082C191.562 26.1799 191.641 26.5783 191.641 26.9806V27.5625C191.641 28.3747 191.318 29.1537 190.744 29.728C190.169 30.3023 189.39 30.625 188.578 30.625ZM188.578 24.8139L187.499 25.9011C187.211 26.1869 187.049 26.5752 187.047 26.9806V27.5625C187.047 27.9686 187.208 28.3581 187.495 28.6453C187.783 28.9324 188.172 29.0938 188.578 29.0938C188.984 29.0938 189.374 28.9324 189.661 28.6453C189.948 28.3581 190.109 27.9686 190.109 27.5625V26.9806C190.108 26.5752 189.945 26.1869 189.658 25.9011L188.578 24.8139Z" fill="black"/>
<path d="M189.344 21.4375H187.812V24.5H189.344V21.4375Z" fill="black"/>
<path d="M193.271 22.9688H183.885L184.842 15.3125H192.314L193.271 22.9688ZM185.615 21.4375H191.541L190.967 16.8438H186.189L185.615 21.4375Z" fill="black"/>
<path d="M96.4864 42.1094H95.1542C94.4177 42.1074 93.712 41.8139 93.1912 41.2931C92.6705 40.7724 92.377 40.0666 92.375 39.3302V31.1073C92.377 30.3709 92.6705 29.6651 93.1912 29.1444C93.712 28.6236 94.4177 28.3301 95.1542 28.3281H96.4864C96.711 28.3297 96.9346 28.358 97.1525 28.4123C97.7564 28.5586 98.2934 28.9042 98.6768 29.3931C99.0602 29.8821 99.2676 30.486 99.2656 31.1073V39.3302C99.2636 40.0666 98.9701 40.7724 98.4494 41.2931C97.9286 41.8139 97.2229 42.1074 96.4864 42.1094V42.1094ZM95.1542 29.8594C94.9903 29.8594 94.8281 29.8917 94.6766 29.9544C94.5252 30.0171 94.3877 30.109 94.2718 30.2249C94.1559 30.3408 94.064 30.4784 94.0012 30.6298C93.9385 30.7812 93.9063 30.9435 93.9063 31.1073V39.3302C93.9063 39.494 93.9385 39.6563 94.0012 39.8077C94.064 39.9591 94.1559 40.0967 94.2718 40.2126C94.3877 40.3285 94.5252 40.4204 94.6766 40.4831C94.8281 40.5458 94.9903 40.5781 95.1542 40.5781H96.4864C96.6503 40.5781 96.8126 40.5458 96.964 40.4831C97.1154 40.4204 97.253 40.3285 97.3689 40.2126C97.4847 40.0967 97.5767 39.9591 97.6394 39.8077C97.7021 39.6563 97.7344 39.494 97.7344 39.3302V31.1073C97.7339 30.8287 97.6402 30.5581 97.4681 30.3389C97.2961 30.1197 97.0556 29.9643 96.785 29.8977C96.6858 29.8869 96.5856 29.8869 96.4864 29.8977L95.1542 29.8594Z" fill="black"/>
<path d="M117.924 42.1094H116.592C115.855 42.1074 115.15 41.8139 114.629 41.2931C114.108 40.7724 113.815 40.0666 113.813 39.3302V31.1073C113.811 30.486 114.018 29.8821 114.401 29.3931C114.785 28.9042 115.322 28.5586 115.926 28.4123C116.144 28.358 116.367 28.3297 116.592 28.3281H117.924C118.66 28.3301 119.366 28.6236 119.887 29.1444C120.408 29.6651 120.701 30.3709 120.703 31.1073V39.3302C120.701 40.0666 120.408 40.7724 119.887 41.2931C119.366 41.8139 118.66 42.1074 117.924 42.1094V42.1094ZM116.592 29.8594C116.492 29.8486 116.392 29.8486 116.293 29.8594C116.016 29.9275 115.771 30.0886 115.598 30.3156C115.425 30.5427 115.336 30.8221 115.344 31.1073V39.3302C115.344 39.494 115.376 39.6563 115.439 39.8077C115.501 39.9591 115.593 40.0967 115.709 40.2126C115.825 40.3285 115.963 40.4204 116.114 40.4831C116.266 40.5458 116.428 40.5781 116.592 40.5781H117.924C118.255 40.5781 118.572 40.4466 118.806 40.2126C119.04 39.9786 119.172 39.6611 119.172 39.3302V31.1073C119.172 30.9435 119.14 30.7812 119.077 30.6298C119.014 30.4784 118.922 30.3408 118.806 30.2249C118.69 30.109 118.553 30.0171 118.401 29.9544C118.25 29.8917 118.088 29.8594 117.924 29.8594H116.592Z" fill="black"/>
<path d="M90.8438 38.2812H76.2969V29.0938H90.8438V38.2812ZM77.8281 36.75H89.3125V30.625H77.8281V36.75Z" fill="black"/>
<path d="M90.8438 36.75H89.3125V42.1094H90.8438V36.75Z" fill="black"/>
<path d="M77.8281 36.75H76.2969V42.1094H77.8281V36.75Z" fill="black"/>
<path d="M113.047 42.1094H100.031C99.4221 42.1094 98.8379 41.8674 98.4071 41.4366C97.9764 41.0059 97.7344 40.4217 97.7344 39.8125V35.2188H115.344V39.8125C115.344 40.4217 115.102 41.0059 114.671 41.4366C114.24 41.8674 113.656 42.1094 113.047 42.1094ZM99.2656 36.75V39.8125C99.2656 40.0156 99.3463 40.2103 99.4899 40.3539C99.6335 40.4975 99.8282 40.5781 100.031 40.5781H113.047C113.25 40.5781 113.445 40.4975 113.588 40.3539C113.732 40.2103 113.812 40.0156 113.812 39.8125V36.75H99.2656Z" fill="black"/>
<path d="M115.344 36.75H97.7344V34.4531C97.7344 33.4378 98.1377 32.4641 98.8556 31.7462C99.5735 31.0283 100.547 30.625 101.562 30.625H111.516C112.531 30.625 113.505 31.0283 114.223 31.7462C114.94 32.4641 115.344 33.4378 115.344 34.4531V36.75ZM99.2656 35.2188H113.812V34.4531C113.812 33.844 113.571 33.2597 113.14 32.829C112.709 32.3982 112.125 32.1562 111.516 32.1562H101.562C100.953 32.1562 100.369 32.3982 99.9384 32.829C99.5076 33.2597 99.2656 33.844 99.2656 34.4531V35.2188Z" fill="black"/>
<path d="M115.344 34.4531H113.812C113.812 33.844 113.571 33.2597 113.14 32.829C112.709 32.3982 112.125 32.1562 111.516 32.1562H101.562C100.953 32.1562 100.369 32.3982 99.9384 32.829C99.5076 33.2597 99.2656 33.844 99.2656 34.4531H97.7344V31.1073C97.7339 30.8287 97.6402 30.5581 97.4681 30.3389C97.2961 30.1197 97.0556 29.9643 96.785 29.8977L96.2031 29.7598V23.7344C96.2031 22.313 96.7678 20.9498 97.7728 19.9447C98.7779 18.9396 100.141 18.375 101.562 18.375H111.516C112.937 18.375 114.3 18.9396 115.305 19.9447C116.31 20.9498 116.875 22.313 116.875 23.7344V29.7598L116.293 29.8977C116.023 29.9643 115.782 30.1197 115.61 30.3389C115.438 30.5581 115.344 30.8287 115.344 31.1073V34.4531ZM101.562 30.625H111.516C112.344 30.625 113.15 30.8936 113.812 31.3906V31.1073C113.81 30.5921 113.953 30.0865 114.223 29.648C114.494 29.2096 114.882 28.8557 115.344 28.6267V23.7344C115.344 22.7191 114.94 21.7454 114.223 21.0275C113.505 20.3096 112.531 19.9062 111.516 19.9062H101.562C100.547 19.9062 99.5735 20.3096 98.8556 21.0275C98.1377 21.7454 97.7344 22.7191 97.7344 23.7344V28.6267C98.196 28.8557 98.5841 29.2096 98.8548 29.648C99.1255 30.0865 99.2678 30.5921 99.2656 31.1073V31.3906C99.9283 30.8936 100.734 30.625 101.562 30.625Z" fill="black"/>
<path d="M85.4844 32.9219H81.6562V34.4531H85.4844V32.9219Z" fill="black"/>
<path d="M86.0586 30.625H81.082L79.1067 23.7344H88.0339L86.0586 30.625ZM82.2304 29.0938H84.9101L85.9973 25.2656H81.1433L82.2304 29.0938Z" fill="black"/>
<path d="M83.5703 25.2656C83.3748 25.2642 83.1799 25.2437 82.9884 25.2044C81.5534 24.96 80.2501 24.2186 79.3066 23.11C78.3632 22.0014 77.8398 20.5963 77.8281 19.1406V18.375H78.5938C80.0184 18.3676 81.4004 18.8608 82.4984 19.7685L82.7817 19.9905V20.3503C82.777 21.2823 83.0517 22.1944 83.5703 22.9688C84.0979 22.1998 84.3832 21.2905 84.3895 20.358V19.9981L84.6728 19.7761C85.7617 18.8724 87.1318 18.3769 88.5469 18.375H89.3125V19.1406C89.318 20.622 88.7904 22.0559 87.8261 23.1804C86.8618 24.305 85.5252 25.0451 84.0603 25.2656C83.8974 25.2819 83.7332 25.2819 83.5703 25.2656V25.2656ZM85.9055 20.7102C85.8492 21.6268 85.5876 22.5191 85.1398 23.321C85.8157 23.0114 86.4064 22.5425 86.8612 21.9544C87.3159 21.3663 87.6211 20.6766 87.7506 19.9446C87.0853 20.0604 86.4546 20.3247 85.9055 20.7178V20.7102ZM79.4053 19.9446C79.5438 20.6732 79.8525 21.3588 80.3062 21.9456C80.7599 22.5323 81.3458 23.0036 82.0161 23.321C81.5705 22.5182 81.309 21.6264 81.2505 20.7102C80.7 20.3225 80.0694 20.0635 79.4053 19.9522V19.9446Z" fill="black"/>
<path d="M83.5703 25.1967L83.0267 24.6608C82.8965 24.523 82.7664 24.3852 82.6439 24.2397C81.6614 23.0533 81.1562 21.5433 81.227 20.0045C81.2978 18.4658 81.9394 17.0086 83.0267 15.9173L83.5703 15.3814L84.1139 15.9173C84.6898 16.4899 85.1462 17.1712 85.4564 17.9217C85.7666 18.6723 85.9244 19.477 85.9207 20.2891V20.3273C85.9164 21.7479 85.4184 23.1229 84.512 24.2167C84.3742 24.3852 84.244 24.523 84.1139 24.6608L83.5703 25.1967ZM83.5703 17.6477C83.037 18.4253 82.7516 19.3461 82.7516 20.2891C82.7516 21.232 83.037 22.1528 83.5703 22.9305C84.0979 22.1615 84.3832 21.2522 84.3895 20.3197H85.1551H84.3895C84.4006 19.3655 84.1142 18.4316 83.5703 17.6477V17.6477Z" fill="black"/>
<path d="M93.9062 15.3125H92.375V33.6875H93.9062V15.3125Z" fill="black"/>
<path d="M99.3421 16.8438H86.939L87.8501 6.89062H98.431L99.3421 16.8438ZM88.6233 15.3125H97.6577L97.0376 8.42188H89.2435L88.6233 15.3125Z" fill="black"/>
<path d="M43.6406 44.4062H5.35938V23.7344H43.6406V44.4062ZM6.89062 42.875H42.1094V25.2656H6.89062V42.875Z" fill="black"/>
<path d="M40.5781 12.25H26.7969V9.47844L29.8594 7.94719V4.59375H37.5156V7.94719L40.5781 9.47844V12.25ZM28.3281 10.7188H39.0469V10.4278L35.9844 8.89656V6.125H31.3906V8.89656L28.3281 10.4278V10.7188Z" fill="black"/>
<path d="M40.5781 40.5781H26.7969V30.625H40.5781V40.5781ZM28.3281 39.0469H39.0469V32.1562H28.3281V39.0469Z" fill="black"/>
<path d="M34.0703 29.0938C34.7046 29.0938 35.2188 28.5796 35.2188 27.9453C35.2188 27.311 34.7046 26.7969 34.0703 26.7969C33.436 26.7969 32.9219 27.311 32.9219 27.9453C32.9219 28.5796 33.436 29.0938 34.0703 29.0938Z" fill="black"/>
<path d="M37.8984 29.0938C38.5327 29.0938 39.0469 28.5796 39.0469 27.9453C39.0469 27.311 38.5327 26.7969 37.8984 26.7969C37.2642 26.7969 36.75 27.311 36.75 27.9453C36.75 28.5796 37.2642 29.0938 37.8984 29.0938Z" fill="black"/>
<path d="M31.3906 25.2656H29.8594V21.4375H32.9219V22.9688H31.3906V25.2656Z" fill="black"/>
<path d="M37.5156 25.2656H35.9844V22.9688H34.4531V21.4375H37.5156V25.2656Z" fill="black"/>
<path d="M24.5 41.3438H8.42188V27.5625H24.5V41.3438ZM9.95312 39.8125H22.9688V29.0938H9.95312V39.8125Z" fill="black"/>
<path d="M24.5 33.6875H8.42188V35.2188H24.5V33.6875Z" fill="black"/>
<path d="M17.6094 30.625H14.5469V32.1562H17.6094V30.625Z" fill="black"/>
<path d="M17.6094 36.75H14.5469V38.2812H17.6094V36.75Z" fill="black"/>
<path d="M35.2188 32.9219H32.1562V34.4531H35.2188V32.9219Z" fill="black"/>
<path d="M22.9688 6.89062H17.6094V8.42188H22.9688V6.89062Z" fill="black"/>
<path d="M19.1406 6.89062H9.1875V8.42188H19.1406V6.89062Z" fill="black"/>
<path d="M10.7188 6.89062H6.89062V8.42188H10.7188V6.89062Z" fill="black"/>
<path d="M10.7188 5.35938H9.1875V16.8438H10.7188V5.35938Z" fill="black"/>
<path d="M19.1406 5.35938H17.6094V13.0156H19.1406V5.35938Z" fill="black"/>
<path d="M9.95313 19.9063C9.49885 19.9063 9.05477 19.7715 8.67705 19.5192C8.29933 19.2668 8.00494 18.9081 7.83109 18.4884C7.65725 18.0687 7.61176 17.6068 7.70038 17.1613C7.78901 16.7157 8.00777 16.3065 8.32899 15.9852C8.65021 15.664 9.05948 15.4453 9.50503 15.3566C9.95058 15.268 10.4124 15.3135 10.8321 15.4873C11.2518 15.6612 11.6105 15.9556 11.8629 16.3333C12.1153 16.711 12.25 17.1551 12.25 17.6094C12.25 18.2185 12.008 18.8028 11.5773 19.2335C11.1465 19.6643 10.5623 19.9063 9.95313 19.9063ZM9.95313 16.8438C9.8017 16.8438 9.65367 16.8887 9.52777 16.9728C9.40186 17.0569 9.30373 17.1765 9.24578 17.3164C9.18783 17.4563 9.17267 17.6102 9.20221 17.7587C9.23175 17.9073 9.30467 18.0437 9.41175 18.1508C9.51882 18.2578 9.65524 18.3307 9.80376 18.3603C9.95228 18.3898 10.1062 18.3747 10.2461 18.3167C10.386 18.2588 10.5056 18.1606 10.5897 18.0347C10.6738 17.9088 10.7188 17.7608 10.7188 17.6094C10.7188 17.4063 10.6381 17.2116 10.4945 17.068C10.3509 16.9244 10.1562 16.8438 9.95313 16.8438Z" fill="black"/>
<path d="M18.375 20.6719C17.4664 20.6719 16.5783 20.4025 15.8229 19.8977C15.0674 19.3929 14.4786 18.6755 14.1309 17.8361C13.7832 16.9967 13.6923 16.073 13.8695 15.1819C14.0468 14.2908 14.4843 13.4723 15.1267 12.8299C15.7692 12.1874 16.5877 11.7499 17.4788 11.5726C18.3699 11.3954 19.2936 11.4864 20.133 11.8341C20.9724 12.1817 21.6898 12.7705 22.1946 13.526C22.6993 14.2814 22.9688 15.1696 22.9688 16.0781C22.9688 17.2965 22.4848 18.4649 21.6233 19.3264C20.7618 20.1879 19.5933 20.6719 18.375 20.6719ZM18.375 13.0156C17.7693 13.0156 17.1772 13.1952 16.6736 13.5318C16.1699 13.8683 15.7774 14.3466 15.5456 14.9062C15.3138 15.4658 15.2532 16.0815 15.3713 16.6756C15.4895 17.2697 15.7812 17.8153 16.2095 18.2436C16.6378 18.6719 17.1835 18.9636 17.7775 19.0818C18.3716 19.1999 18.9874 19.1393 19.547 18.9075C20.1066 18.6757 20.5849 18.2832 20.9214 17.7796C21.2579 17.2759 21.4375 16.6838 21.4375 16.0781C21.4375 15.2659 21.1148 14.4869 20.5405 13.9126C19.9662 13.3383 19.1872 13.0156 18.375 13.0156Z" fill="black"/>
<path d="M44.4062 23.7344H4.59375V25.2656H44.4062V23.7344Z" fill="black"/>
</svg>
