<svg width="361" height="109" viewBox="0 0 361 109" fill="none" xmlns="http://www.w3.org/2000/svg">
<path d="M226.035 98.5949H216.33C215.621 98.5998 214.93 98.3721 214.359 97.9461C213.789 97.52 213.37 96.9185 213.166 96.2316L208.51 80.9791C208.432 80.7216 208.274 80.4966 208.059 80.3372C207.844 80.1778 207.585 80.0926 207.318 80.0942H204.037C203.901 80.0945 203.767 80.0676 203.641 80.0152C203.515 79.9628 203.401 79.8859 203.305 79.7889C203.11 79.5928 203 79.3267 203 79.049C203 78.7713 203.108 78.5048 203.302 78.3081C203.496 78.1114 203.759 78.0006 204.034 78.0001H207.315C208.024 77.9945 208.717 78.2218 209.288 78.6479C209.859 79.074 210.278 79.6759 210.483 80.3634L211.434 83.4825H229.662C230.213 83.4831 230.755 83.6223 231.239 83.8875C231.723 84.1526 232.134 84.5355 232.435 85.0015C232.737 85.4675 232.918 86.002 232.965 86.5568C233.011 87.1116 232.919 87.6693 232.699 88.1795L229.054 96.5893C228.796 97.183 228.374 97.6885 227.838 98.0445C227.302 98.4005 226.676 98.5917 226.035 98.5949V98.5949ZM212.079 85.5766L215.142 95.6159C215.219 95.8735 215.377 96.0989 215.591 96.2589C215.805 96.419 216.064 96.505 216.33 96.5045H226.035C226.275 96.5058 226.511 96.4369 226.713 96.3061C226.916 96.1753 227.076 95.9881 227.176 95.7671L230.822 87.3574C230.905 87.1658 230.939 86.9563 230.922 86.7478C230.905 86.5394 230.837 86.3385 230.723 86.1635C230.61 85.9885 230.455 85.8449 230.273 85.7456C230.091 85.6463 229.887 85.5946 229.681 85.595L212.079 85.5766Z" fill="black"/>
<path d="M216.407 108C215.748 108 215.104 107.802 214.556 107.432C214.008 107.062 213.581 106.536 213.329 105.92C213.077 105.304 213.011 104.627 213.139 103.973C213.268 103.319 213.585 102.719 214.051 102.247C214.517 101.776 215.111 101.455 215.757 101.325C216.404 101.195 217.074 101.262 217.682 101.517C218.291 101.772 218.812 102.204 219.178 102.758C219.544 103.312 219.739 103.964 219.739 104.63C219.738 105.524 219.387 106.38 218.762 107.012C218.138 107.644 217.291 107.999 216.407 108V108ZM216.407 103.355C216.158 103.355 215.914 103.429 215.707 103.57C215.499 103.71 215.337 103.909 215.242 104.142C215.146 104.375 215.121 104.632 215.17 104.879C215.219 105.127 215.339 105.354 215.515 105.532C215.692 105.711 215.917 105.832 216.161 105.881C216.406 105.931 216.66 105.905 216.89 105.809C217.121 105.712 217.318 105.549 217.456 105.339C217.595 105.129 217.669 104.883 217.669 104.63C217.668 104.292 217.535 103.968 217.298 103.729C217.062 103.49 216.742 103.356 216.407 103.355V103.355Z" fill="black"/>
<path d="M225.765 108C225.106 108 224.462 107.802 223.914 107.432C223.366 107.062 222.939 106.536 222.687 105.92C222.435 105.304 222.369 104.627 222.497 103.973C222.626 103.319 222.943 102.719 223.409 102.247C223.875 101.776 224.469 101.455 225.115 101.325C225.762 101.195 226.432 101.262 227.041 101.517C227.649 101.772 228.17 102.204 228.536 102.758C228.902 103.312 229.098 103.964 229.098 104.63C229.097 105.524 228.745 106.38 228.121 107.012C227.496 107.644 226.649 107.999 225.765 108V108ZM225.765 103.355C225.516 103.355 225.272 103.429 225.065 103.57C224.857 103.71 224.696 103.909 224.6 104.142C224.505 104.375 224.48 104.632 224.528 104.879C224.577 105.127 224.697 105.354 224.874 105.532C225.05 105.711 225.275 105.832 225.519 105.881C225.764 105.931 226.018 105.905 226.248 105.809C226.479 105.712 226.676 105.549 226.814 105.339C226.953 105.129 227.027 104.883 227.027 104.63C227.026 104.292 226.893 103.968 226.656 103.729C226.42 103.49 226.1 103.356 225.765 103.355V103.355Z" fill="black"/>
<path d="M142.999 105.003C142.716 105.009 142.438 104.888 142.203 104.655L130.319 92.2071C127.227 88.9609 127.227 83.6823 130.319 80.4244C131.98 78.7874 133.94 77.9424 135.935 78.0031C137.931 77.9476 139.891 78.7988 141.55 80.4421L142.999 81.9561L144.448 80.4421C147.544 77.1959 152.582 77.1959 155.679 80.4421C158.775 83.6882 158.775 88.9609 155.679 92.2247L143.799 104.655C143.562 104.888 143.283 105.009 142.999 105.003V105.003ZM135.935 80.3596C134.506 80.327 133.104 80.9438 131.919 82.127C129.702 84.4482 129.702 88.2245 131.919 90.5457L142.999 102.158L154.083 90.5339C156.296 88.2127 156.296 84.4364 154.083 82.1152C151.87 79.794 148.264 79.7705 146.044 82.127L143.799 84.4835C143.562 84.7101 143.285 84.8305 143.003 84.8305C142.721 84.8305 142.444 84.7101 142.207 84.4835L139.939 82.127C138.757 80.9476 137.36 80.331 135.935 80.3596V80.3596Z" fill="black"/>
<path d="M89.66 108.048H66.3214C65.9717 108.048 65.6363 107.905 65.3887 107.651C65.141 107.397 65.0012 107.052 65 106.692V101.767C65 98.9718 66.0785 96.291 67.9981 94.3144C69.9178 92.3378 72.5214 91.2274 75.2362 91.2274H80.7638C83.4786 91.2274 86.0822 92.3378 88.0019 94.3144C89.9215 96.291 91 98.9718 91 101.767V106.692C90.9994 106.872 90.9642 107.05 90.8963 107.216C90.8285 107.382 90.7294 107.532 90.6048 107.658C90.4801 107.784 90.3325 107.883 90.1703 107.95C90.0081 108.017 89.8347 108.05 89.66 108.048V108.048ZM67.6428 105.355H88.3572V101.767C88.356 99.6935 87.5557 97.705 86.1321 96.2382C84.7084 94.7715 82.7777 93.9463 80.7638 93.9437H75.2362C73.2223 93.9463 71.2916 94.7715 69.8679 96.2382C68.4443 97.705 67.644 99.6935 67.6428 101.767V105.355Z" fill="black"/>
<path d="M78.0743 93.3305C76.599 93.3352 75.1556 92.8885 73.9273 92.047C72.699 91.2055 71.7412 90.0071 71.1756 88.6041C70.6099 87.2011 70.4619 85.6566 70.7503 84.1668C71.0387 82.6771 71.7505 81.3091 72.7954 80.2366C73.8403 79.1641 75.1711 78.4355 76.6189 78.1432C78.0666 77.8509 79.5661 78.0082 80.927 78.595C82.2878 79.1818 83.4486 80.1717 84.262 81.4391C85.0755 82.7064 85.5048 84.1941 85.4956 85.7132C85.4833 87.7337 84.6968 89.6675 83.307 91.094C81.9172 92.5205 80.0367 93.3243 78.0743 93.3305V93.3305ZM78.0743 80.769C77.1291 80.7691 76.2051 81.0574 75.4189 81.5977C74.6328 82.1381 74.0197 82.9061 73.6571 83.8049C73.2946 84.7037 73.1988 85.693 73.3818 86.6478C73.5649 87.6026 74.0186 88.4802 74.6856 89.1697C75.3527 89.8592 76.2032 90.3298 77.1298 90.522C78.0564 90.7141 79.0176 90.6193 79.8919 90.2495C80.7662 89.8797 81.5145 89.2514 82.0423 88.4441C82.5701 87.6367 82.8538 86.6864 82.8574 85.7132C82.8593 85.065 82.7369 84.4228 82.4975 83.8233C82.258 83.2239 81.906 82.6789 81.4617 82.2197C81.0175 81.7605 80.4896 81.396 79.9083 81.1471C79.3271 80.8981 78.7039 80.7697 78.0743 80.769V80.769Z" fill="black"/>
<path d="M20.3478 108C22.7764 108 24.9483 107.185 26.6286 105.503L29.0823 103.048C30.3059 101.823 30.3059 99.8294 29.082 98.605L25.3538 94.8742C24.7159 94.2356 23.8353 93.9042 22.933 93.96C22.0327 94.0178 21.1999 94.4609 20.6486 95.1752L18.2305 98.3086C16.4717 97.3637 14.8298 96.134 13.3438 94.6465C11.8653 93.167 10.6407 91.5332 9.69872 89.7848L12.838 87.3591C13.5518 86.8077 13.9946 85.9748 14.0523 85.0741C14.1101 84.1731 13.7773 83.2899 13.139 82.6512L9.41118 78.9205C8.81821 78.3268 8.02975 78 7.19078 78C6.35215 78 5.56372 78.3268 4.97105 78.9205L3.01943 80.8728C2.81803 81.0439 2.65063 81.1972 2.49513 81.3525C-2.04964 85.8997 -0.261063 94.0413 6.84338 101.15C11.3214 105.632 16.2085 108 20.3475 108L20.3478 108ZM3.991 82.8509C4.12769 82.7144 4.27164 82.5865 4.41824 82.4633C4.44102 82.4438 4.46314 82.4237 4.4846 82.4022L6.46758 80.4182C6.66073 80.2246 6.9176 80.1182 7.19065 80.1182C7.46403 80.1182 7.72089 80.2246 7.91437 80.4182L11.6422 84.1489C11.8532 84.3604 11.9592 84.6409 11.94 84.9386C11.9209 85.2363 11.7802 85.5006 11.5442 85.6833L7.98197 88.4358C7.42201 88.8686 7.24604 89.6391 7.56332 90.2688C8.63541 92.3962 10.0765 94.3729 11.8466 96.1442C13.6245 97.9237 15.6108 99.3711 17.7506 100.446C18.3786 100.761 19.1475 100.585 19.5791 100.026L22.3231 96.4699C22.5054 96.2337 22.7698 96.0929 23.0673 96.0741C23.3658 96.0523 23.6451 96.161 23.8561 96.3718L27.5843 100.103C27.9831 100.502 27.9828 101.152 27.5843 101.551L25.1309 104.006C21.467 107.671 14.5622 105.882 8.33879 99.6542C2.11651 93.4259 0.328351 86.5163 3.99113 82.8506L3.991 82.8509Z" fill="black"/>
<path d="M252.045 23.5783L248.697 19.1814L249.81 13.7702C249.874 13.4625 249.723 13.1498 249.443 13.0087L244.517 10.5069L243.171 5.14669C243.095 4.84234 242.825 4.62838 242.511 4.62146L236.987 4.49754L233.448 0.25229C233.247 0.00917029 232.906 -0.0655432 232.624 0.0638502L227.594 2.35798L222.564 0.0620772C222.281 -0.0669522 221.941 0.00959026 221.74 0.250517L218.202 4.49614L212.679 4.61861C212.365 4.62553 212.095 4.83949 212.018 5.14384L210.672 10.504L205.745 13.0041C205.465 13.1452 205.314 13.4579 205.378 13.7637L206.49 19.1786L203.142 23.5787C202.953 23.8284 202.953 24.1736 203.142 24.4218L206.49 28.8187L205.376 34.2299C205.313 34.5376 205.463 34.8503 205.743 34.9914L210.67 37.4914L212.015 42.8516C212.092 43.156 212.362 43.37 212.675 43.3769L218.199 43.5008L221.739 47.7479C221.874 47.9112 222.072 47.9994 222.274 47.9994C222.371 47.9994 222.47 47.979 222.563 47.9367L227.594 45.6422L232.623 47.9367C232.907 48.0676 233.245 47.991 233.446 47.7483L236.985 43.5027L242.508 43.382C242.821 43.3736 243.092 43.1593 243.168 42.8553L244.514 37.4965L249.443 34.9947C249.723 34.8536 249.873 34.5409 249.809 34.2351L248.697 28.8202L252.046 24.4218C252.234 24.1732 252.234 23.8266 252.045 23.5784L252.045 23.5783ZM247.397 28.2285C247.276 28.3882 247.228 28.5937 247.269 28.7895L248.338 33.9934L243.6 36.3983C243.421 36.4883 243.289 36.653 243.24 36.8488L241.947 42.0002L236.638 42.1175C236.436 42.1226 236.247 42.2145 236.118 42.369L232.717 46.4492L227.883 44.2432C227.699 44.1616 227.488 44.1616 227.305 44.2432L222.468 46.4492L219.066 42.3669C218.937 42.2123 218.748 42.1205 218.547 42.1172L213.237 41.9965L211.944 36.8437C211.895 36.6483 211.763 36.4835 211.584 36.3932L206.847 33.99L207.917 28.7895C207.958 28.5923 207.911 28.3867 207.79 28.2271L204.572 24.0004L207.79 19.7701C207.911 19.6104 207.958 19.4049 207.917 19.2091L206.848 14.0052L211.586 11.6021C211.766 11.5121 211.898 11.3473 211.947 11.1516L213.24 5.99872L218.549 5.88135C218.75 5.87625 218.94 5.7844 219.068 5.62986L222.469 1.5494L227.304 3.75712C227.488 3.83876 227.699 3.83876 227.882 3.75712L232.718 1.55117L236.121 5.63163C236.249 5.78617 236.438 5.87802 236.64 5.88131L241.949 6.00013L243.242 11.1548C243.291 11.3501 243.423 11.5149 243.602 11.6053L248.339 14.0102L247.269 19.2107C247.228 19.4079 247.275 19.6135 247.396 19.7731L250.615 23.9998L247.397 28.2285Z" fill="black"/>
<path d="M227.146 7.12543C217.842 7.12543 210.272 14.6952 210.272 24.0006C210.272 33.306 217.842 40.8758 227.146 40.8758C236.45 40.8758 244.02 33.306 244.02 24.0006C244.021 14.6954 236.451 7.12543 227.146 7.12543V7.12543ZM227.146 39.4817C218.609 39.4817 211.664 32.5374 211.664 24.0006C211.664 15.4638 218.609 8.51948 227.146 8.51948C235.683 8.51948 242.628 15.4638 242.628 24.0006C242.628 32.5374 235.683 39.4817 227.146 39.4817V39.4817Z" fill="black"/>
<path d="M231.379 18.9949L231.733 15.9222C231.797 15.3598 231.723 14.7868 231.516 14.2684C230.533 11.7938 228.875 11.4283 228.005 11.4932C227.551 11.5052 227.119 11.709 226.821 12.0542C226.524 12.3975 226.385 12.8531 226.438 13.3014L226.72 15.73C226.767 16.1259 226.692 16.5221 226.515 16.8552L224.047 21.1533C223.914 21.4015 223.719 21.614 223.514 21.7449L223.383 21.8178C223.279 21.5641 223.031 21.3844 222.741 21.3844H217.801C217.417 21.3844 217.105 21.6971 217.105 22.0813V31.6717C217.105 32.0559 217.417 32.3687 217.801 32.3687H222.741C223.116 32.3687 223.419 32.0679 223.432 31.6951L223.81 31.9167C224.644 32.4113 225.599 32.673 226.572 32.673L234.433 32.6712C234.456 32.673 234.479 32.673 234.502 32.673C235.67 32.673 236.657 31.8081 236.812 30.6351C236.847 30.365 236.837 30.0997 236.785 29.8449C237.571 29.5526 238.174 28.8454 238.291 27.9582C238.356 27.4585 238.255 26.9607 238.024 26.5341C238.161 26.4459 238.29 26.3421 238.409 26.2247C238.854 25.7829 239.098 25.1931 239.098 24.5659C239.098 23.9255 238.824 23.3576 238.4 22.9319C238.504 22.8265 238.63 22.746 238.712 22.6217C239.071 22.076 239.186 21.4203 239.032 20.7726C238.786 19.7258 237.853 18.995 236.763 18.995L231.379 18.9949ZM222.045 30.975H218.497V22.7779H222.045V30.975ZM237.677 21.0925C237.741 21.3626 237.695 21.6345 237.549 21.8557C237.413 22.0624 237.198 22.2024 236.959 22.2534H231.99C231.606 22.2534 231.294 22.5661 231.294 22.9503C231.294 23.3345 231.606 23.6472 231.99 23.6472H236.961C237.393 23.7406 237.706 24.1182 237.706 24.5669C237.706 24.8202 237.606 25.0597 237.427 25.2383C237.248 25.415 237.012 25.512 236.761 25.512H236.752L231.676 25.5113C231.292 25.5113 230.98 25.824 230.98 26.2082C230.98 26.5924 231.292 26.9051 231.676 26.9051H236.504C236.783 27.1052 236.956 27.4296 236.911 27.777C236.842 28.292 236.377 28.6572 235.853 28.5912C235.843 28.5898 235.834 28.5974 235.823 28.5967C235.803 28.5949 235.785 28.5847 235.765 28.5847L231.336 28.5745H231.334C230.95 28.5745 230.639 28.8854 230.638 29.2696C230.638 29.6537 230.948 29.9665 231.333 29.9679L235.36 29.9771C235.419 30.1258 235.454 30.2847 235.432 30.4538C235.367 30.9382 234.953 31.3665 234.453 31.2798H226.572C225.848 31.2798 225.139 31.0862 224.518 30.7188L223.801 30.2975C223.692 30.2326 223.535 30.2045 223.437 30.1969V23.2955C223.543 23.2893 223.648 23.2667 223.741 23.2153L224.23 22.9402C224.67 22.6599 225.032 22.2673 225.265 21.827L227.734 17.5289C228.056 16.9257 228.183 16.2474 228.104 15.5694L227.822 13.1408C227.812 13.054 227.851 12.9928 227.876 12.9658C227.9 12.937 227.956 12.8878 228.045 12.8842C229 12.8911 229.712 13.4976 230.223 14.7825C230.345 15.0883 230.389 15.4302 230.35 15.7648L229.923 19.519C229.871 19.7264 229.918 19.9506 230.05 20.119C230.182 20.2888 230.388 20.3891 230.602 20.3891H236.762C237.196 20.3887 237.581 20.6847 237.677 21.0925L237.677 21.0925Z" fill="black"/>
<path d="M16.5 46C16.0623 46 15.65 45.7912 15.3909 45.438L3.51874 29.2482C1.21655 26.1088 0 22.3927 0 18.5C0 9.40204 7.40204 2 16.5 2C25.598 2 33 9.40204 33 18.5C33 22.3927 31.7834 26.1088 29.4819 29.2482L17.6091 45.438C17.35 45.7912 16.9377 46 16.5 46ZM16.5 4.75C8.91803 4.75 2.75 10.918 2.75 18.5C2.75 21.8032 3.78259 24.9581 5.73633 27.6221L16.5 42.3L27.2643 27.6221C29.2174 24.9581 30.25 21.8032 30.25 18.5C30.25 10.918 24.082 4.75 16.5 4.75ZM16.5 25.375C12.7094 25.375 9.625 22.2906 9.625 18.5C9.625 14.7094 12.7094 11.625 16.5 11.625C20.2906 11.625 23.375 14.7094 23.375 18.5C23.375 22.2906 20.2906 25.375 16.5 25.375ZM16.5 14.375C14.2253 14.375 12.375 16.2253 12.375 18.5C12.375 20.7747 14.2253 22.625 16.5 22.625C18.7747 22.625 20.625 20.7747 20.625 18.5C20.625 16.2253 18.7747 14.375 16.5 14.375Z" fill="black"/>
<path d="M131.868 39.673H134.116C134.616 41.7244 136.821 43.2829 139.461 43.2829C142.101 43.2829 144.306 41.7331 144.807 39.673H164.805C165.305 41.7244 167.51 43.2829 170.15 43.2829C172.79 43.2829 174.995 41.7331 175.495 39.673H176.321C179.091 39.673 181.351 37.8097 181.351 35.5255V32.9904C181.351 32.2826 181.123 31.6021 180.71 30.993C180.677 30.9304 180.634 30.8764 180.59 30.8228C180.547 30.7602 180.504 30.6972 180.46 30.6346L175.159 24.3194C174.213 23.1996 172.671 22.5278 171.02 22.5278H161.134V17.0636C161.134 15.3079 159.396 13.8746 157.266 13.8746L131.856 13.875C129.727 13.8664 128 15.2906 128 17.0463V36.4849C128 38.2401 129.738 39.6734 131.867 39.6734L131.868 39.673ZM139.461 41.4916C137.647 41.4916 136.18 40.2821 136.18 38.7863C136.18 37.2904 137.647 36.081 139.461 36.081C141.264 36.081 142.731 37.2904 142.742 38.7773V38.7863C142.742 40.2731 141.264 41.4916 139.461 41.4916V41.4916ZM170.139 41.4916C168.336 41.4916 166.858 40.2821 166.858 38.7863C166.858 37.2904 168.325 36.081 170.139 36.081C171.942 36.081 173.409 37.2904 173.42 38.7773V38.7863V38.7952C173.42 40.2731 171.953 41.4915 170.139 41.4915V41.4916ZM173.365 25.3315L177.624 30.4106H170.747V24.3196H171.019C171.953 24.3192 172.833 24.6956 173.365 25.3315V25.3315ZM168.575 24.3192V31.3062C168.575 31.7989 169.063 32.2019 169.661 32.2019H179.003C179.112 32.4527 179.177 32.7215 179.177 32.9903V35.5253C179.177 36.8244 177.895 37.8812 176.32 37.8812H175.494C174.984 35.8298 172.789 34.2893 170.149 34.2893C167.509 34.2893 165.315 35.8391 164.804 37.8812H160.926C161.045 37.6034 161.121 37.308 161.121 36.9946L161.122 24.3193L168.575 24.3192ZM130.173 17.0458C130.173 16.2754 130.933 15.6576 131.856 15.6576H157.255C158.189 15.6576 158.949 16.2848 158.949 17.0549V36.9944C158.949 37.4871 158.471 37.8811 157.874 37.8811H144.805C144.295 35.8296 142.1 34.2891 139.46 34.2891C136.82 34.2891 134.626 35.8389 134.115 37.8811H131.867C130.933 37.8811 130.172 37.2539 130.172 36.4835L130.173 17.0458Z" fill="black"/>
<path d="M171.986 0C166.294 0 161.655 3.81612 161.655 8.51885C161.655 13.2216 166.283 17.0377 171.986 17.0377C177.679 17.0377 182.318 13.2216 182.318 8.51885C182.317 3.81574 177.69 0 171.986 0V0ZM171.986 15.2368C167.489 15.2368 163.828 12.2182 163.828 8.50964C163.828 4.8011 167.489 1.78243 171.986 1.78243C176.484 1.78243 180.145 4.81013 180.145 8.51866C180.145 12.2272 176.484 15.2368 171.986 15.2368V15.2368Z" fill="black"/>
<path d="M174.985 7.62247H173.084V5.11438C173.084 4.62176 172.595 4.21875 171.998 4.21875C171.4 4.21875 170.911 4.62176 170.911 5.11438V8.5181C170.911 9.01072 171.4 9.41373 171.998 9.41373H174.985C175.583 9.41373 176.071 9.01072 176.071 8.5181C176.071 8.02549 175.582 7.62247 174.985 7.62247H174.985Z" fill="black"/>
<path d="M76.5112 30.4894C76.0555 30.0337 76.0555 29.2951 76.5112 28.8393L77.6564 27.6942V27.6945C77.1658 26.9728 76.8416 26.1515 76.7065 25.2896L76.5906 24.5024H76.591C76.4969 23.8651 76.9376 23.2723 77.575 23.1782C78.2127 23.0844 78.8055 23.5252 78.8993 24.1625L79.0152 24.95C79.2206 26.1352 79.9749 27.1534 81.0494 27.6948C81.8345 28.0763 82.5734 28.0679 83.0787 27.673C83.6278 27.243 83.803 26.4337 83.5468 25.508L82.303 21.0177C81.7945 19.1789 82.2851 17.4067 83.5829 16.3921C84.7994 15.4412 86.4758 15.3354 88.0679 16.1092V16.1095C88.3241 16.2361 88.5702 16.3823 88.8045 16.5464L89.9367 15.4142V15.4139C90.3928 14.9604 91.1297 14.9614 91.5845 15.4161C92.0392 15.8709 92.0402 16.6079 91.5867 17.0639L90.4377 18.213V18.2127C90.9292 18.9327 91.255 19.753 91.3917 20.614L91.5076 21.4011C91.6004 22.0381 91.1596 22.6299 90.5229 22.7237C89.8859 22.8174 89.2934 22.3777 89.199 21.7409L89.0831 20.9535C88.8784 19.7679 88.1238 18.7497 87.0493 18.2084C86.2645 17.8269 85.5252 17.835 85.02 18.2302C84.4705 18.6599 84.2957 19.4688 84.5515 20.395L85.7957 24.8849C86.3042 26.7232 85.8136 28.4952 84.5161 29.5106C83.2996 30.4614 81.6232 30.5676 80.0308 29.7938V29.7941C79.7736 29.6678 79.5266 29.5223 79.2915 29.3589L78.161 30.4894H78.1614C77.7056 30.9451 76.967 30.9451 76.5113 30.4894L76.5112 30.4894ZM65.9112 26.9657C65.3278 26.381 65 25.5887 65 24.7625C65 23.9363 65.3278 23.144 65.9112 22.5593L84.1704 4.29428C85.0662 3.42219 86.0604 2.65752 87.1326 2.01527C92.4386 -1.2419 98.7085 -0.504898 103.107 3.89353C107.505 8.29128 108.242 14.5619 104.985 19.8669C104.343 20.9395 103.578 21.9336 102.706 22.8295L84.4407 41.0887C83.8557 41.672 83.0635 41.9998 82.2375 41.9998C81.4114 41.9998 80.619 41.672 80.0344 41.0887L65.9112 26.9657ZM67.5606 25.3162L81.6839 39.4396C81.9899 39.7449 82.4854 39.7449 82.7914 39.4396L101.056 21.1804V21.1807C101.799 20.4138 102.45 19.5639 102.997 18.6469C106.244 13.3575 104.197 8.28186 101.458 5.54269C98.7181 2.8031 93.6426 0.756179 88.3535 4.00327C87.4369 4.55014 86.5866 5.20119 85.8197 5.94369L67.5605 24.2087C67.2552 24.5147 67.2552 25.0102 67.5605 25.3161L67.5606 25.3162ZM93.2548 13.7462C92.5178 13.0092 92.1038 12.0095 92.1035 10.9672C92.1035 9.92454 92.5179 8.92487 93.2548 8.18787C93.9917 7.45087 94.9915 7.03687 96.0338 7.03687C97.0761 7.03687 98.0758 7.45093 98.8131 8.18787C99.5501 8.92485 99.9641 9.92454 99.9641 10.9672C99.9641 12.0095 99.5501 13.0092 98.8131 13.7462C98.0752 14.4822 97.0758 14.8953 96.0338 14.8953C94.9918 14.8953 93.9925 14.4822 93.2548 13.7462V13.7462ZM94.5741 12.4265C94.9615 12.8136 95.4866 13.031 96.0338 13.031C96.5813 13.031 97.1064 12.8133 97.4935 12.4262C97.8805 12.0388 98.098 11.5141 98.098 10.9665C98.0976 10.419 97.8802 9.89396 97.4931 9.50688C97.1061 9.11984 96.5811 8.90239 96.0335 8.90239C95.486 8.90239 94.9609 9.11984 94.5738 9.5072C94.1874 9.89457 93.9703 10.4196 93.9703 10.9669C93.9703 11.5144 94.1877 12.0391 94.5741 12.4269V12.4265Z" fill="black"/>
<path d="M293.309 106.25C293.069 106.25 292.829 106.158 292.646 105.975L281.602 94.9313C281.236 94.5651 281.236 93.9719 281.602 93.6057C281.968 93.2394 282.561 93.2394 282.927 93.6057L293.971 104.65C294.338 105.016 294.338 105.609 293.971 105.975C293.788 106.158 293.549 106.25 293.309 106.25Z" fill="black"/>
<path d="M276.742 97.4893C274.503 97.4893 272.262 96.6365 270.558 94.9313C267.147 91.521 267.147 85.9724 270.558 82.5621C272.209 80.91 274.406 80 276.742 80C279.079 80 281.276 80.91 282.927 82.5621C286.338 85.9724 286.338 91.521 282.927 94.9313C281.223 96.6365 278.982 97.4893 276.742 97.4893ZM276.742 81.875C274.907 81.875 273.182 82.5896 271.883 83.8878C269.205 86.5671 269.205 90.9264 271.883 93.6057C274.563 96.2854 278.924 96.2836 281.602 93.6057C284.281 90.9264 284.281 86.5671 281.602 83.8878C280.304 82.5896 278.578 81.875 276.742 81.875Z" fill="black"/>
<path d="M341.32 78.0015C341.286 78.0034 341.258 78.0071 341.23 78.0109L341.236 78.0101C341.194 78.0147 341.16 78.0203 341.126 78.0279L341.133 78.026C341.12 78.0279 341.115 78.0287 341.11 78.0306L341.117 78.0287C341.078 78.0371 341.049 78.0456 341.02 78.0549L341.028 78.053C341.014 78.0557 341.009 78.0576 341.003 78.0586L341.011 78.0567C341.001 78.0595 341 78.0605 340.998 78.0613L341.005 78.0586C340.969 78.0708 340.942 78.0802 340.917 78.0915L340.924 78.0888C340.907 78.0952 340.896 78.099 340.887 78.1028L340.894 78.1001C340.865 78.1132 340.843 78.1235 340.821 78.1356L340.827 78.1329C340.809 78.1413 340.798 78.1469 340.787 78.1536L340.793 78.1509C340.769 78.1641 340.752 78.1743 340.735 78.1856L340.739 78.1837C340.72 78.1959 340.705 78.2053 340.69 78.2156L340.693 78.2137L340.686 78.2183C340.679 78.2229 340.677 78.2239 340.675 78.2266L340.677 78.2248L331.462 84.643C331.181 84.8407 331.001 85.151 331 85.4998V106.928V106.928C331 107.52 331.517 108 332.154 108C332.414 108 332.656 107.919 332.848 107.784L332.846 107.786L341.385 101.84L349.923 107.786C349.941 107.799 349.962 107.812 349.984 107.825L349.989 107.828C349.988 107.827 349.989 107.828 349.991 107.828L349.994 107.83C350.013 107.842 350.04 107.856 350.065 107.869L350.071 107.872C350.076 107.874 350.086 107.88 350.097 107.885L350.103 107.887C350.116 107.894 350.136 107.902 350.156 107.911L350.163 107.914C350.172 107.918 350.19 107.924 350.206 107.931L350.214 107.933C350.219 107.935 350.233 107.94 350.246 107.944L350.254 107.945C350.269 107.951 350.294 107.959 350.318 107.965L350.326 107.967C350.337 107.97 350.357 107.973 350.377 107.977L350.384 107.978C350.39 107.98 350.405 107.983 350.419 107.985L350.426 107.985C350.448 107.989 350.477 107.992 350.507 107.995L350.511 107.996C350.517 107.996 350.529 107.996 350.539 107.997H350.542C350.558 107.998 350.577 107.999 350.597 107.999H350.598H350.623C350.643 107.999 350.663 107.999 350.683 107.997H350.68C350.694 107.996 350.703 107.995 350.713 107.994L350.707 107.995C350.735 107.993 350.76 107.991 350.785 107.988L350.779 107.989C350.804 107.985 350.823 107.982 350.841 107.979L350.834 107.979C350.862 107.975 350.881 107.971 350.901 107.966L350.893 107.968C350.916 107.963 350.931 107.958 350.946 107.953L350.938 107.955C350.97 107.947 350.993 107.94 351.015 107.933L351.007 107.935C351.03 107.928 351.045 107.922 351.06 107.916L351.053 107.918C351.078 107.909 351.095 107.902 351.113 107.895L351.106 107.898C351.131 107.886 351.148 107.878 351.165 107.869L351.159 107.871C351.186 107.858 351.207 107.847 351.229 107.835L351.224 107.837C351.235 107.831 351.242 107.825 351.25 107.82L351.247 107.822C351.272 107.808 351.291 107.796 351.31 107.784L351.308 107.786L360.538 101.357C360.819 101.159 361 100.849 361 100.499V100.498V79.0705C360.999 78.4789 360.483 78 359.846 78C359.834 78 359.823 78 359.811 78.0008H359.813C359.564 78.0073 359.336 78.087 359.151 78.2164L359.154 78.2145L350.615 84.1602L342.077 78.2145C342.07 78.2099 342.06 78.2042 342.05 78.1986L342.045 78.1958C342.031 78.1864 342.015 78.1751 341.997 78.1649L341.992 78.1622C341.982 78.1557 341.966 78.1471 341.951 78.1387L341.944 78.136C341.932 78.1295 341.914 78.1201 341.896 78.1117L341.89 78.109C341.885 78.1071 341.873 78.1015 341.861 78.0969L341.854 78.0942C341.837 78.0858 341.811 78.0764 341.786 78.067L341.778 78.0642C341.784 78.0661 341.782 78.0651 341.78 78.0651L341.773 78.0624C341.774 78.0624 341.768 78.0605 341.761 78.0596L341.753 78.0577C341.736 78.0521 341.71 78.0446 341.684 78.037L341.676 78.0352C341.66 78.0305 341.634 78.0257 341.61 78.0211L341.603 78.0203C341.603 78.0203 341.596 78.0184 341.588 78.0176L341.581 78.0167C341.587 78.0176 341.584 78.0176 341.583 78.0167L341.576 78.0159C341.552 78.0121 341.521 78.0094 341.488 78.0065H341.484C341.485 78.0065 341.479 78.0056 341.473 78.0046L341.467 78.0038H341.463H341.459C341.456 78.0029 341.448 78.0029 341.44 78.0019L341.435 78.001C341.422 78.0002 341.408 78.0002 341.393 78.0002C341.379 78.0002 341.364 78.0002 341.35 78.001H341.352H341.337H341.32H341.321L341.32 78.0015ZM342.538 81.2148L349.462 86.0359V104.785L342.538 99.9638V81.2148ZM340.23 81.2158V99.9638L333.307 104.785V86.0369L340.23 81.2158ZM358.692 81.2158V99.9638L351.768 104.785V86.0369L358.692 81.2158Z" fill="black"/>
<g clip-path="url(#clip0_9019_23299)">
<path d="M305 36C304.679 36.0066 304.365 35.8764 304.098 35.6266L290.63 22.2561C287.125 18.7696 287.125 13.0999 290.63 9.60068C292.512 7.84241 294.733 6.93484 296.994 6.99998C299.256 6.94044 301.477 7.85469 303.358 9.61966L305 11.2459L306.642 9.61966C310.151 6.13308 315.861 6.13308 319.37 9.61966C322.88 13.1062 322.88 18.7696 319.37 22.2751L305.907 35.6266C305.638 35.8766 305.322 36.0067 305 36ZM296.994 9.53107C295.374 9.49605 293.786 10.1586 292.443 11.4294C289.931 13.9225 289.931 17.9786 292.443 20.4717L289 16.5L293.5 9L300.5 9.53107L305.005 14.3332L311 8.5L318 11L321 17L317.562 20.4591C320.07 17.9659 320.07 13.9099 317.562 11.4167C315.054 8.92361 310.967 8.8983 308.451 11.4294L305.907 13.9605C305.638 14.2038 305.325 14.3332 305.005 14.3332C304.685 14.3332 304.371 14.2038 304.103 13.9605L301.532 11.4294C300.192 10.1627 298.609 9.50035 296.994 9.53107Z" fill="black"/>
</g>
<defs>
<clipPath id="clip0_9019_23299">
<rect width="34" height="29" fill="white" transform="translate(288 7)"/>
</clipPath>
</defs>
</svg>
